# xmcd CD database file
#
# Track frame offsets:
#	150
#	10531
#	24405
#	39364
#	73887
#	89718
#	100567
#	130627
#
# Disc length: 2313 seconds
#
# Revision: 0
# Processed by: cddbd v1.5.1PL2 Copyright (c) Steve Scherf et al.
# Submitted via: Feurio! 1.68 - http://www.feurio.com
#
DISCID=58090708
DTITLE=Dr. Friebes Bluesband - . . . . . voll drauf
DYEAR=1900
DGENRE=
TTITLE0=Dr. Friebe - That's Allright
TTITLE1=Dr. Friebe - Would You Think
TTITLE2=Dr. Friebe - All Your Love
TTITLE3=Dr. Friebe - Stormy Monday
TTITLE4=Dr. Friebe - Talk To Me Baby
TTITLE5=Dr. Friebe - Hey Bartender
TTITLE6=Dr. Friebe - There Was A Dream
TTITLE7=Dr. Friebe - Acid - H
EXTD=
EXTT0=
EXTT1=
EXTT2=
EXTT3=
EXTT4=
EXTT5=
EXTT6=
EXTT7=
PLAYORDER=
